<svg width="49" height="48" viewBox="0 0 49 48" fill="none" xmlns="http://www.w3.org/2000/svg">
<g clip-path="url(#clip0_0_1025)">
<path d="M46.8851 15.6083L43.8856 13.3587V2.8125C44.6622 2.8125 45.2918 2.18288 45.2918 1.40625C45.2918 0.629625 44.6622 0 43.8856 0H35.4481C34.6714 0 34.0418 0.629625 34.0418 1.40625C34.0418 2.18288 34.6714 2.8125 35.4481 2.8125V7.0305L27.1972 0.842438C25.7072 -0.273563 23.6263 -0.273656 22.1357 0.842906L2.44833 15.6085C0.587115 17.0047 0.208553 19.6543 1.60449 21.5152C2.28137 22.417 3.26874 23.0014 4.38483 23.1605C4.58705 23.1893 4.7889 23.2036 4.98952 23.2035C5.46849 23.2035 5.93921 23.1214 6.38555 22.9631V46.5938C6.38555 47.3704 7.01518 48 7.7918 48H41.5418C42.3184 48 42.9481 47.3704 42.9481 46.5938V22.9624C43.3946 23.1203 43.8671 23.2024 44.3522 23.2024C45.6741 23.2024 46.9365 22.5715 47.7293 21.5149C49.1251 19.6543 48.7464 17.0047 46.8851 15.6083ZM38.2606 2.8125H41.0731V11.2492L38.2606 9.13987V2.8125ZM27.0106 28.3125H22.3231V19.6875H27.0106V28.3125ZM29.8231 28.3125V18.2812C29.8231 17.5046 29.1934 16.875 28.4168 16.875H20.9168C20.1402 16.875 19.5106 17.5046 19.5106 18.2812V28.3125H9.19815V21.0934L24.6668 9.49162L40.1356 21.0935V28.3125H29.8231ZM9.19815 31.125H28.8856V33.9375H24.6668C23.8902 33.9375 23.2606 34.5671 23.2606 35.3438V39.5625H19.0418C18.2652 39.5625 17.6356 40.1921 17.6356 40.9688V45.1875H9.19805L9.19815 31.125ZM20.4481 45.1875V42.375H24.6668C25.4434 42.375 26.0731 41.7454 26.0731 40.9688V36.75H30.2918C31.0684 36.75 31.6981 36.1204 31.6981 35.3438V31.125H40.1356V45.1875H20.4481ZM45.4795 19.8271C45.2111 20.1847 44.8003 20.39 44.3522 20.39C44.0466 20.39 43.7555 20.2928 43.5105 20.1091L25.5106 6.60881C25.0106 6.23381 24.323 6.23381 23.8231 6.60881L5.8223 20.1097C5.52296 20.3344 5.1533 20.4292 4.78187 20.3761C4.4094 20.323 4.07987 20.1279 3.85412 19.8271C3.38902 19.207 3.51549 18.3238 4.13593 17.8583L23.8226 3.09347C24.0712 2.90719 24.3691 2.81419 24.667 2.81419C24.9646 2.81419 25.2622 2.90719 25.5104 3.093L45.1975 17.8583C45.8181 18.3239 45.9446 19.207 45.4795 19.8271Z" fill="#ea7a12"/>
</g>
<defs>
<clipPath id="clip0_0_1025">
<rect width="48" height="48" fill="white" transform="translate(0.666748)"/>
</clipPath>
</defs>
</svg>
