<svg width="48" height="48" viewBox="0 0 48 48" fill="none" xmlns="http://www.w3.org/2000/svg">
<g clip-path="url(#clip0_0_935)">
<path d="M46.5947 45.1554H46.1473V27.9864C46.1473 27.2103 45.5181 26.5811 44.742 26.5811H36.0693V1.43921C36.0693 0.663124 35.4401 0.0339355 34.664 0.0339355H13.313C12.5369 0.0339355 11.9077 0.663124 11.9077 1.43921V10.6457H3.23494C2.45886 10.6457 1.82967 11.2749 1.82967 12.051V45.1555H1.40528C0.629189 45.1555 0 45.7846 0 46.5607C0 47.3368 0.629189 47.966 1.40528 47.966H46.5947C47.3708 47.966 48 47.3368 48 46.5607C48 45.7846 47.3708 45.1554 46.5947 45.1554ZM43.3367 29.3916V33.0866H36.0693V29.3916H43.3367ZM11.9077 27.9005H4.64022V21.8319H11.9076L11.9077 27.9005ZM4.64022 30.7111H11.9076V36.7797H4.64022V30.7111ZM11.9077 13.4562V19.0213H4.64022V13.4562H11.9077ZM4.64022 39.5903H11.9076V45.1554H4.64022V39.5903ZM14.7183 2.84449H33.2588V45.1555H30.2835V37.2735C30.2835 36.4975 29.6543 35.8683 28.8782 35.8683H19.0988C18.3227 35.8683 17.6935 36.4975 17.6935 37.2735V45.1555H14.7183V2.84449ZM20.5041 45.1554V38.6787H27.4729V45.1554H20.5041ZM36.0692 45.1554V35.8971H43.3366V45.1554H36.0692Z" fill="white"/>
<path d="M18.9313 8.56104H29.0455C29.8216 8.56104 30.4508 7.93185 30.4508 7.15576C30.4508 6.37968 29.8216 5.75049 29.0455 5.75049H18.9313C18.1552 5.75049 17.526 6.37968 17.526 7.15576C17.526 7.93185 18.1552 8.56104 18.9313 8.56104Z" fill="white"/>
<path d="M18.9313 14.5049H29.0455C29.8216 14.5049 30.4508 13.8757 30.4508 13.0996C30.4508 12.3235 29.8216 11.6943 29.0455 11.6943H18.9313C18.1552 11.6943 17.526 12.3235 17.526 13.0996C17.526 13.8757 18.1552 14.5049 18.9313 14.5049Z" fill="white"/>
<path d="M18.9313 20.4487H29.0455C29.8216 20.4487 30.4508 19.8195 30.4508 19.0435C30.4508 18.2674 29.8216 17.6382 29.0455 17.6382H18.9313C18.1552 17.6382 17.526 18.2674 17.526 19.0435C17.526 19.8195 18.1552 20.4487 18.9313 20.4487Z" fill="white"/>
<path d="M18.9313 26.3926H29.0455C29.8216 26.3926 30.4508 25.7634 30.4508 24.9873C30.4508 24.2112 29.8216 23.582 29.0455 23.582H18.9313C18.1552 23.582 17.526 24.2112 17.526 24.9873C17.526 25.7634 18.1552 26.3926 18.9313 26.3926Z" fill="white"/>
<path d="M18.9313 32.3364H29.0455C29.8216 32.3364 30.4508 31.7072 30.4508 30.9312C30.4508 30.1551 29.8216 29.5259 29.0455 29.5259H18.9313C18.1552 29.5259 17.526 30.1551 17.526 30.9312C17.526 31.7072 18.1552 32.3364 18.9313 32.3364Z" fill="white"/>
</g>
<defs>
<clipPath id="clip0_0_935">
<rect width="48" height="48" fill="white"/>
</clipPath>
</defs>
</svg>
