<svg width="48" height="48" viewBox="0 0 48 48" fill="none" xmlns="http://www.w3.org/2000/svg">
<path d="M48 14.5078C48 12.1816 46.1075 10.2891 43.7812 10.2891H36.2812V7.26309C36.2812 4.82194 34.2952 2.83594 31.8542 2.83594H16.1459C13.7048 2.83594 11.7188 4.82194 11.7188 7.26309V10.2891H4.21875C1.89253 10.2891 0 12.1816 0 14.5078V21.1638C0 22.4041 0.403875 23.9509 1.875 25.4681V40.9453C1.875 43.2715 3.76753 45.1641 6.09375 45.1641H41.9062C44.2325 45.1641 46.125 43.2715 46.125 40.9453V25.4681C47.5955 23.9517 48 22.4054 48 21.1638V14.5078ZM14.5312 7.26309C14.5312 6.37275 15.2556 5.64844 16.1459 5.64844H31.8543C32.7445 5.64844 33.4688 6.37275 33.4688 7.26309V10.2891H14.5312V7.26309ZM2.8125 14.5078C2.8125 13.7324 3.44334 13.1016 4.21875 13.1016H43.7812C44.5567 13.1016 45.1875 13.7324 45.1875 14.5078V21.1638C45.1875 24.6239 38.5493 27.4476 28.875 28.1873V26.8828C28.875 26.1062 28.2454 25.4766 27.4688 25.4766H20.5312C19.7546 25.4766 19.125 26.1062 19.125 26.8828V28.1869C9.45947 27.4462 2.8125 24.6151 2.8125 21.1638V14.5078ZM26.0625 28.2891V30.1172C26.0625 31.1252 25.2424 31.9453 24.2344 31.9453H23.7656C22.7576 31.9453 21.9375 31.1252 21.9375 30.1172V28.2891H26.0625ZM41.9062 42.3516H6.09375C5.31834 42.3516 4.6875 41.7207 4.6875 40.9453V27.532C8.87475 29.6777 13.2752 30.505 19.2127 31.0137C19.6317 33.1448 21.5136 34.7578 23.7656 34.7578H24.2344C26.4866 34.7578 28.3686 33.1447 28.7873 31.0133C33.6921 30.6581 38.1198 29.7578 41.3528 28.4497C42.0798 28.1555 42.7301 27.8482 43.3125 27.5317V40.9453C43.3125 41.7207 42.6817 42.3516 41.9062 42.3516Z" fill="white"/>
</svg>
