<svg width="32" height="33" viewBox="0 0 32 33" fill="none" xmlns="http://www.w3.org/2000/svg">
<path d="M24 18.7878C23.2122 18.793 22.4354 18.9726 21.7253 19.3138C21.0152 19.655 20.3896 20.1493 19.8933 20.7611L13.0933 17.6278C13.413 16.6488 13.413 15.5934 13.0933 14.6144L19.8933 11.4811C20.6954 12.4491 21.8137 13.1025 23.0508 13.3262C24.2879 13.5499 25.5642 13.3294 26.6546 12.7036C27.7449 12.0779 28.5791 11.0871 29.01 9.90609C29.4409 8.72511 29.4408 7.42988 29.0097 6.24897C28.5786 5.06807 27.7442 4.07742 26.6537 3.45186C25.5633 2.82629 24.2869 2.60602 23.0499 2.82993C21.8128 3.05384 20.6947 3.70752 19.8927 4.67562C19.0907 5.64372 18.6565 6.864 18.6666 8.1211C18.6706 8.43874 18.7019 8.75546 18.76 9.06777L11.72 12.3078C10.9694 11.5739 10.0189 11.0778 8.9877 10.8817C7.95644 10.6856 6.89025 10.7981 5.92269 11.2053C4.95513 11.6124 4.12924 12.2961 3.54849 13.1705C2.96774 14.045 2.65796 15.0714 2.65796 16.1211C2.65796 17.1708 2.96774 18.1972 3.54849 19.0717C4.12924 19.9461 4.95513 20.6298 5.92269 21.0369C6.89025 21.4441 7.95644 21.5566 8.9877 21.3605C10.0189 21.1644 10.9694 20.6683 11.72 19.9344L18.76 23.1744C18.7019 23.4867 18.6706 23.8035 18.6666 24.1211C18.6666 25.1759 18.9794 26.2071 19.5655 27.0841C20.1515 27.9612 20.9844 28.6448 21.959 29.0485C22.9335 29.4521 24.0059 29.5577 25.0404 29.352C26.075 29.1462 27.0253 28.6382 27.7712 27.8923C28.5171 27.1465 29.025 26.1961 29.2308 25.1616C29.4366 24.127 29.331 23.0547 28.9273 22.0801C28.5236 21.1056 27.8401 20.2726 26.963 19.6866C26.0859 19.1006 25.0548 18.7878 24 18.7878ZM24 5.45443C24.5274 5.45443 25.0429 5.61083 25.4815 5.90385C25.92 6.19686 26.2618 6.61334 26.4636 7.10061C26.6655 7.58788 26.7183 8.12406 26.6154 8.64134C26.5125 9.15862 26.2585 9.63378 25.8856 10.0067C25.5126 10.3797 25.0375 10.6336 24.5202 10.7365C24.0029 10.8394 23.4667 10.7866 22.9795 10.5848C22.4922 10.3829 22.0757 10.0412 21.7827 9.60262C21.4897 9.16409 21.3333 8.64852 21.3333 8.1211C21.3333 7.41385 21.6142 6.73558 22.1143 6.23548C22.6144 5.73538 23.2927 5.45443 24 5.45443V5.45443ZM7.99996 18.7878C7.47254 18.7878 6.95697 18.6314 6.51844 18.3384C6.0799 18.0453 5.73811 17.6289 5.53628 17.1416C5.33444 16.6543 5.28163 16.1181 5.38453 15.6009C5.48742 15.0836 5.7414 14.6084 6.11434 14.2355C6.48728 13.8625 6.96243 13.6086 7.47972 13.5057C7.997 13.4028 8.53318 13.4556 9.02045 13.6574C9.50771 13.8593 9.92419 14.201 10.2172 14.6396C10.5102 15.0781 10.6666 15.5937 10.6666 16.1211C10.6666 16.8283 10.3857 17.5066 9.88557 18.0067C9.38548 18.5068 8.7072 18.7878 7.99996 18.7878ZM24 26.7878C23.4725 26.7878 22.957 26.6314 22.5184 26.3384C22.0799 26.0453 21.7381 25.6289 21.5363 25.1416C21.3344 24.6543 21.2816 24.1181 21.3845 23.6009C21.4874 23.0836 21.7414 22.6084 22.1143 22.2355C22.4873 21.8625 22.9624 21.6086 23.4797 21.5057C23.997 21.4028 24.5332 21.4556 25.0204 21.6574C25.5077 21.8593 25.9242 22.201 26.2172 22.6396C26.5102 23.0781 26.6666 23.5937 26.6666 24.1211C26.6666 24.8283 26.3857 25.5066 25.8856 26.0067C25.3855 26.5068 24.7072 26.7878 24 26.7878Z" fill="#ea7a12"/>
</svg>
