<svg width="48" height="48" viewBox="0 0 48 48" fill="none" xmlns="http://www.w3.org/2000/svg">
<path d="M46.5938 12.8438H44.1562V11.25C44.1562 10.4734 43.5266 9.84375 42.75 9.84375C41.9734 9.84375 41.3438 10.4734 41.3438 11.25V12.8438H35.9062V7.5C35.9062 6.72337 35.2766 6.09375 34.5 6.09375H31.4062V1.40625C31.4062 0.629625 30.7766 0 30 0H18C17.2234 0 16.5938 0.629625 16.5938 1.40625V6.09375H13.5C12.7234 6.09375 12.0938 6.72337 12.0938 7.5V22.5938H5.90625V21C5.90625 20.2234 5.27663 19.5938 4.5 19.5938C3.72337 19.5938 3.09375 20.2234 3.09375 21V22.5938H1.40625C0.629625 22.5938 0 23.2234 0 24V46.5938C0 47.3704 0.629625 48 1.40625 48H46.5938C47.3704 48 48 47.3704 48 46.5938V14.25C48 13.4734 47.3704 12.8438 46.5938 12.8438ZM19.4062 2.8125H28.5938V6.09375H19.4062V2.8125ZM2.8125 25.4062H12.0938V45.1875H2.8125V25.4062ZM14.9062 24V8.90625H18H30H33.0938V14.25V45.1875H28.4062V40.4062H28.5C29.2766 40.4062 29.9062 39.7766 29.9062 39C29.9062 38.2234 29.2766 37.5938 28.5 37.5938H27H21H19.5C18.7234 37.5938 18.0938 38.2234 18.0938 39C18.0938 39.7766 18.7234 40.4062 19.5 40.4062H19.5938V45.1875H14.9062V24ZM22.4062 45.1875V40.4062H25.5938V45.1875H22.4062ZM45.1875 45.1875H35.9062V15.6562H45.1875V45.1875Z" fill="#ea7a12"/>
<path d="M19.5 14.9062H21C21.7766 14.9062 22.4062 14.2766 22.4062 13.5C22.4062 12.7234 21.7766 12.0938 21 12.0938H19.5C18.7234 12.0938 18.0938 12.7234 18.0938 13.5C18.0938 14.2766 18.7234 14.9062 19.5 14.9062Z" fill="#ea7a12"/>
<path d="M8.25 27.8438H6.75C5.97337 27.8438 5.34375 28.4734 5.34375 29.25C5.34375 30.0266 5.97337 30.6562 6.75 30.6562H8.25C9.02663 30.6562 9.65625 30.0266 9.65625 29.25C9.65625 28.4734 9.02663 27.8438 8.25 27.8438Z" fill="#ea7a12"/>
<path d="M8.25 33.0938H6.75C5.97337 33.0938 5.34375 33.7234 5.34375 34.5C5.34375 35.2766 5.97337 35.9062 6.75 35.9062H8.25C9.02663 35.9062 9.65625 35.2766 9.65625 34.5C9.65625 33.7234 9.02663 33.0938 8.25 33.0938Z" fill="#ea7a12"/>
<path d="M8.25 38.3438H6.75C5.97337 38.3438 5.34375 38.9734 5.34375 39.75C5.34375 40.5266 5.97337 41.1562 6.75 41.1562H8.25C9.02663 41.1562 9.65625 40.5266 9.65625 39.75C9.65625 38.9734 9.02663 38.3438 8.25 38.3438Z" fill="#ea7a12"/>
<path d="M41.25 18.0938H39.75C38.9734 18.0938 38.3438 18.7234 38.3438 19.5C38.3438 20.2766 38.9734 20.9062 39.75 20.9062H41.25C42.0266 20.9062 42.6562 20.2766 42.6562 19.5C42.6562 18.7234 42.0266 18.0938 41.25 18.0938Z" fill="#ea7a12"/>
<path d="M41.25 23.3438H39.75C38.9734 23.3438 38.3438 23.9734 38.3438 24.75C38.3438 25.5266 38.9734 26.1562 39.75 26.1562H41.25C42.0266 26.1562 42.6562 25.5266 42.6562 24.75C42.6562 23.9734 42.0266 23.3438 41.25 23.3438Z" fill="#ea7a12"/>
<path d="M41.25 28.5938H39.75C38.9734 28.5938 38.3438 29.2234 38.3438 30C38.3438 30.7766 38.9734 31.4062 39.75 31.4062H41.25C42.0266 31.4062 42.6562 30.7766 42.6562 30C42.6562 29.2234 42.0266 28.5938 41.25 28.5938Z" fill="#ea7a12"/>
<path d="M41.25 33.8438H39.75C38.9734 33.8438 38.3438 34.4734 38.3438 35.25C38.3438 36.0266 38.9734 36.6562 39.75 36.6562H41.25C42.0266 36.6562 42.6562 36.0266 42.6562 35.25C42.6562 34.4734 42.0266 33.8438 41.25 33.8438Z" fill="#ea7a12"/>
<path d="M27 14.9062H28.5C29.2766 14.9062 29.9062 14.2766 29.9062 13.5C29.9062 12.7234 29.2766 12.0938 28.5 12.0938H27C26.2234 12.0938 25.5938 12.7234 25.5938 13.5C25.5938 14.2766 26.2234 14.9062 27 14.9062Z" fill="#ea7a12"/>
<path d="M19.5 20.9062H21C21.7766 20.9062 22.4062 20.2766 22.4062 19.5C22.4062 18.7234 21.7766 18.0938 21 18.0938H19.5C18.7234 18.0938 18.0938 18.7234 18.0938 19.5C18.0938 20.2766 18.7234 20.9062 19.5 20.9062Z" fill="#ea7a12"/>
<path d="M27 20.9062H28.5C29.2766 20.9062 29.9062 20.2766 29.9062 19.5C29.9062 18.7234 29.2766 18.0938 28.5 18.0938H27C26.2234 18.0938 25.5938 18.7234 25.5938 19.5C25.5938 20.2766 26.2234 20.9062 27 20.9062Z" fill="#ea7a12"/>
<path d="M19.5 26.9062H21C21.7766 26.9062 22.4062 26.2766 22.4062 25.5C22.4062 24.7234 21.7766 24.0938 21 24.0938H19.5C18.7234 24.0938 18.0938 24.7234 18.0938 25.5C18.0938 26.2766 18.7234 26.9062 19.5 26.9062Z" fill="#ea7a12"/>
<path d="M27 26.9062H28.5C29.2766 26.9062 29.9062 26.2766 29.9062 25.5C29.9062 24.7234 29.2766 24.0938 28.5 24.0938H27C26.2234 24.0938 25.5938 24.7234 25.5938 25.5C25.5938 26.2766 26.2234 26.9062 27 26.9062Z" fill="#ea7a12"/>
<path d="M19.5 32.9062H21C21.7766 32.9062 22.4062 32.2766 22.4062 31.5C22.4062 30.7234 21.7766 30.0938 21 30.0938H19.5C18.7234 30.0938 18.0938 30.7234 18.0938 31.5C18.0938 32.2766 18.7234 32.9062 19.5 32.9062Z" fill="#ea7a12"/>
<path d="M27 32.9062H28.5C29.2766 32.9062 29.9062 32.2766 29.9062 31.5C29.9062 30.7234 29.2766 30.0938 28.5 30.0938H27C26.2234 30.0938 25.5938 30.7234 25.5938 31.5C25.5938 32.2766 26.2234 32.9062 27 32.9062Z" fill="#ea7a12"/>
</svg>
