<svg width="49" height="48" viewBox="0 0 49 48" fill="none" xmlns="http://www.w3.org/2000/svg">
<g clip-path="url(#clip0_0_965)">
<path d="M46.9271 45.1875H45.5099V1.40625C45.5099 0.629517 44.8804 0 44.1036 0C43.3273 0 42.6974 0.629517 42.6974 1.40625V5.05042H40.8224V1.40625C40.8224 0.629517 40.1929 0 39.4161 0C38.6398 0 38.0099 0.629517 38.0099 1.40625V5.05042H33.9896V1.40625C33.9896 0.629517 33.3601 0 32.5834 0C31.8066 0 31.1771 0.629517 31.1771 1.40625V5.05042H29.3021V1.40625C29.3021 0.629517 28.6726 0 27.8959 0C27.1191 0 26.4896 0.629517 26.4896 1.40625V5.05042H22.469V1.40625C22.469 0.629517 21.8395 0 21.0627 0C20.2864 0 19.6565 0.629517 19.6565 1.40625V5.05042H17.7815V1.40625C17.7815 0.629517 17.152 0 16.3752 0C15.5989 0 14.969 0.629517 14.969 1.40625V21.442H5.95837V19.9845C5.95837 19.2078 5.32886 18.5782 4.55212 18.5782C3.77539 18.5782 3.14587 19.2078 3.14587 19.9845V45.1875H1.73962C0.962891 45.1875 0.333374 45.817 0.333374 46.5938C0.333374 47.3705 0.962891 48 1.73962 48H46.9271C47.7039 48 48.3334 47.3705 48.3334 46.5938C48.3334 45.817 47.7039 45.1875 46.9271 45.1875ZM42.6974 12.5211V27.4479H17.7815V12.5211H42.6974ZM42.6974 7.86292V9.70862H40.8224V7.86292H42.6974ZM38.0099 7.86292V9.70862H33.9896V7.86292H38.0099ZM31.1771 7.86292V9.70862H29.3021V7.86292H31.1771ZM26.4896 7.86292V9.70862H22.469V7.86292H26.4896ZM17.7815 7.86292H19.6565V9.70862H17.7815V7.86292ZM14.969 33.2933H11.8701V24.2545H14.969V33.2933ZM9.05762 39.3669H5.95837V36.1058H9.05762V39.3669ZM5.95837 33.2933V30.2604H9.05762V33.2933H5.95837ZM9.05762 24.2545V27.4479H5.95837V24.2545H9.05762ZM5.95837 42.1794H9.05762V45.1875H5.95837V42.1794ZM11.8701 45.1875V36.1058H14.9694V45.1875H11.8701ZM17.7815 45.1875V30.2604H42.6974V45.1875H17.7815Z" fill="#ea7a12"/>
<path d="M26.5771 32.5942H22.6125C21.3693 32.5942 20.3574 33.6061 20.3574 34.849V40.6926C20.3574 41.9359 21.3693 42.9474 22.6125 42.9474H26.5771C27.8204 42.9474 28.8319 41.9359 28.8319 40.6926V34.849C28.8319 33.6061 27.8204 32.5942 26.5771 32.5942ZM26.0194 40.1349H23.1699V35.4067H26.0194V40.1349Z" fill="#ea7a12"/>
<path d="M37.8667 32.5942H33.9021C32.6588 32.5942 31.6473 33.6061 31.6473 34.849V40.6926C31.6473 41.9359 32.6588 42.9474 33.9021 42.9474H37.8667C39.11 42.9474 40.1215 41.9359 40.1215 40.6926V34.849C40.1215 33.6061 39.11 32.5942 37.8667 32.5942ZM37.309 40.1349H34.4598V35.4067H37.309V40.1349Z" fill="#ea7a12"/>
<path d="M22.6125 25.2081H26.5771C27.8204 25.2081 28.8319 24.1967 28.8319 22.9534V17.1097C28.8319 15.8665 27.8204 14.855 26.5771 14.855H22.6125C21.3693 14.855 20.3574 15.8665 20.3574 17.1097V22.9534C20.3574 24.1967 21.3693 25.2081 22.6125 25.2081ZM23.1699 17.6675H26.0194V22.3956H23.1699V17.6675Z" fill="#ea7a12"/>
<path d="M33.9021 25.2081H37.8667C39.11 25.2081 40.1218 24.1967 40.1218 22.9534V17.1097C40.1218 15.8665 39.11 14.855 37.8667 14.855H33.9021C32.6588 14.855 31.6473 15.8665 31.6473 17.1097V22.9534C31.6473 24.1967 32.6588 25.2081 33.9021 25.2081ZM34.4598 17.6675H37.3093V22.3956H34.4598V17.6675Z" fill="#ea7a12"/>
</g>
<defs>
<clipPath id="clip0_0_965">
<rect width="48" height="48" fill="white" transform="translate(0.333374)"/>
</clipPath>
</defs>
</svg>
