<svg width="49" height="48" viewBox="0 0 49 48" fill="none" xmlns="http://www.w3.org/2000/svg">
<g clip-path="url(#clip0_0_980)">
<path d="M36.0152 28.7193L30.9644 23.6685L34.7804 19.8525L37.7635 22.8356C38.3832 23.4553 39.2073 23.7967 40.0838 23.7967C40.9602 23.7967 41.7842 23.4553 42.404 22.8356L47.7072 17.5323C48.9865 16.253 48.9865 14.1712 47.7072 12.8919L35.7748 0.959523C34.4955 -0.31979 32.4139 -0.31979 31.1344 0.959523L25.8311 6.26287C24.5518 7.54218 24.5518 9.6239 25.8311 10.9032L28.8142 13.8862L24.9982 17.7022L19.9475 12.6515C20.9743 9.20793 20.0494 5.4614 17.471 2.88299C14.8158 0.227804 10.9477 -0.677633 7.37626 0.519929C6.94379 0.66496 6.60854 1.01071 6.47692 1.44749C6.34529 1.88418 6.4337 2.35771 6.71401 2.71752L10.6262 7.73905L8.40583 9.95952L3.38429 6.04715C3.02448 5.76674 2.55095 5.67843 2.11436 5.81005C1.67757 5.94168 1.33182 6.27684 1.18679 6.7094C-0.0109565 10.2809 0.894481 14.1489 3.54986 16.8042C6.12826 19.3827 9.87489 20.3077 13.3184 19.2808L18.3692 24.3315L13.251 29.4497C12.9874 29.1867 12.6304 29.0391 12.258 29.0391C11.8851 29.0391 11.5274 29.1872 11.2637 29.451L2.31442 38.4004C1.25186 39.4626 0.666762 40.8752 0.666762 42.3776C0.666762 43.8801 1.25186 45.2927 2.31432 46.3551C3.41092 47.4516 4.85129 48 6.29176 48C7.73223 48 9.17261 47.4517 10.2692 46.3551L19.2185 37.4058C19.7677 36.8567 19.7677 35.9662 19.2185 35.4171L19.2172 35.4157L24.3353 30.2976L29.386 35.3483C28.3591 38.7919 29.284 42.5384 31.8624 45.1169C33.7427 46.9972 36.2309 48.0001 38.7915 48C39.847 48 40.9149 47.8296 41.9573 47.48C42.3897 47.3349 42.725 46.9892 42.8566 46.5524C42.9882 46.1156 42.8998 45.6422 42.6195 45.2824L38.7073 40.2608L40.9277 38.0405L45.9492 41.9526C46.3089 42.2329 46.7824 42.3212 47.2192 42.1897C47.6559 42.0581 48.0017 41.723 48.1467 41.2904C49.3445 37.7189 48.439 33.8509 45.7837 31.1956C43.2053 28.6173 39.4588 27.6925 36.0152 28.7193ZM27.6826 8.58299C27.6826 8.51062 27.7004 8.37102 27.82 8.25159L33.1232 2.94824C33.2426 2.8288 33.3821 2.8109 33.4547 2.8109C33.5273 2.8109 33.6667 2.82871 33.7862 2.94824L45.7186 14.8806C45.838 15.0001 45.8559 15.1396 45.8559 15.2121C45.8559 15.2845 45.838 15.4241 45.7185 15.5436L40.4153 20.8469C40.2958 20.9663 40.1563 20.9842 40.0838 20.9842C40.0112 20.9842 39.8718 20.9664 39.7523 20.8469L27.8199 8.91449C27.7004 8.79505 27.6826 8.65565 27.6826 8.58299ZM14.6828 16.6676C14.2832 16.268 13.6832 16.1466 13.1594 16.359C10.5337 17.4251 7.5422 16.8191 5.53848 14.8154C4.15314 13.4301 3.43529 11.5812 3.48348 9.68971L7.65732 12.9417C8.21701 13.3776 9.01407 13.3285 9.51592 12.8267L13.4934 8.84915C13.9952 8.3473 14.0444 7.55034 13.6084 6.99055L10.3566 2.81671C12.2471 2.76862 14.0968 3.48655 15.4822 4.8718C17.4859 6.87543 18.0917 9.8668 17.0257 12.4926C16.813 13.0162 16.9346 13.6162 17.3343 14.0159L23.0094 19.6911L20.3576 22.3427L14.6828 16.6676ZM8.28048 44.3664C7.18389 45.4627 5.39954 45.4629 4.30304 44.3663C3.77186 43.8351 3.47926 43.1288 3.47926 42.3776C3.47926 41.6264 3.77186 40.9201 4.30304 40.3889L12.258 32.4338L16.2354 36.4114L8.28048 44.3664ZM15.2397 31.4382L30.803 15.875L32.7918 17.8638L17.2285 33.427L15.2397 31.4382ZM45.85 38.3102L41.6761 35.0583C41.1162 34.6222 40.3192 34.6714 39.8175 35.1733L35.8401 39.1507C35.3382 39.6526 35.289 40.4496 35.725 41.0093L38.977 45.1832C37.0864 45.2328 35.2366 44.5134 33.8514 43.1282C31.8476 41.1245 31.2418 38.1331 32.3079 35.5073C32.5205 34.9836 32.3989 34.3836 31.9992 33.984L26.3242 28.3089L28.9759 25.6572L34.6509 31.3324C35.0506 31.7321 35.6506 31.8536 36.1743 31.641C38.8001 30.5749 41.7915 31.1809 43.7952 33.1845C45.1804 34.5698 45.8981 36.4187 45.85 38.3102Z" fill="#ea7a12"/>
</g>
<defs>
<clipPath id="clip0_0_980">
<rect width="48" height="48" fill="white" transform="translate(0.666748)"/>
</clipPath>
</defs>
</svg>
