<svg width="49" height="48" viewBox="0 0 49 48" fill="none" xmlns="http://www.w3.org/2000/svg">
<g clip-path="url(#clip0_0_1011)">
<path d="M43.9271 24.0938H42.2396V20.1562H45.3334C46.11 20.1562 46.7396 19.5266 46.7396 18.75V6.75C46.7396 5.97337 46.11 5.34375 45.3334 5.34375H3.33337C2.55675 5.34375 1.92712 5.97337 1.92712 6.75V18.75C1.92712 19.5266 2.55675 20.1562 3.33337 20.1562H6.42712V24.0938H4.73962C2.31 24.0938 0.333374 26.0704 0.333374 28.5V32.25C0.333374 33.0266 0.962999 33.6562 1.73962 33.6562H4.17712V41.25C4.17712 42.0266 4.80675 42.6562 5.58337 42.6562H10.8334C11.61 42.6562 12.2396 42.0266 12.2396 41.25V33.6562H36.4271V41.25C36.4271 42.0266 37.0567 42.6562 37.8334 42.6562H43.0834C43.86 42.6562 44.4896 42.0266 44.4896 41.25V33.6562H46.9271C47.7038 33.6562 48.3334 33.0266 48.3334 32.25V28.5C48.3334 26.0704 46.3568 24.0938 43.9271 24.0938ZM4.73962 17.3438V8.15625H43.9271V17.3438H4.73962ZM39.4271 20.1562V24.0938H36.9896V20.1562H39.4271ZM34.1771 20.1562V24.0938H14.4896V20.1562H34.1771ZM11.6771 20.1562V24.0938H9.23962V20.1562H11.6771ZM9.42712 39.8438H6.98962V33.6562H9.42712V39.8438ZM41.6771 39.8438H39.2396V33.6562H41.6771V39.8438ZM45.5209 30.8438H3.14587V28.5C3.14587 27.6212 3.86081 26.9062 4.73962 26.9062H43.9271C44.8059 26.9062 45.5209 27.6212 45.5209 28.5V30.8438Z" fill="#ea7a12"/>
<path d="M38.5834 14.1564C39.3599 14.1564 39.9894 13.5268 39.9894 12.7503C39.9894 11.9738 39.3599 11.3442 38.5834 11.3442C37.8068 11.3442 37.1773 11.9738 37.1773 12.7503C37.1773 13.5268 37.8068 14.1564 38.5834 14.1564Z" fill="#ea7a12"/>
<path d="M10.0834 14.1564C10.8599 14.1564 11.4894 13.5268 11.4894 12.7503C11.4894 11.9738 10.8599 11.3442 10.0834 11.3442C9.30682 11.3442 8.67731 11.9738 8.67731 12.7503C8.67731 13.5268 9.30682 14.1564 10.0834 14.1564Z" fill="#ea7a12"/>
</g>
<defs>
<clipPath id="clip0_0_1011">
<rect width="48" height="48" fill="white" transform="translate(0.333374)"/>
</clipPath>
</defs>
</svg>
