<svg width="48" height="48" viewBox="0 0 48 48" fill="none" xmlns="http://www.w3.org/2000/svg">
<g clip-path="url(#clip0_0_992)">
<path d="M10.875 18H37.125C37.9016 18 38.5312 17.3704 38.5312 16.5938V10.9688C38.5312 10.1921 37.9016 9.5625 37.125 9.5625H34.8217L30.0938 5.62266V1.40625C30.0938 0.629625 29.4641 0 28.6875 0H19.3125C18.5359 0 17.9062 0.629625 17.9062 1.40625V5.62266L13.1783 9.5625H10.875C10.0984 9.5625 9.46875 10.1921 9.46875 10.9688V16.5938C9.46875 17.3704 10.0984 18 10.875 18ZM20.2128 7.36153C20.5333 7.09434 20.7188 6.69863 20.7188 6.28125V2.8125H27.2812V6.28125C27.2812 6.69863 27.4667 7.09434 27.7872 7.36153L30.4283 9.5625H17.5717L20.2128 7.36153ZM12.2812 12.375H35.7188V15.1875H12.2812V12.375Z" fill="#ea7a12"/>
<path d="M44.625 28.3125H30.7894C30.9455 27.8723 31.0312 27.3992 31.0312 26.9062V25.5H32.4375C33.2141 25.5 33.8438 24.8704 33.8438 24.0938C33.8438 23.3171 33.2141 22.6875 32.4375 22.6875H31.0312V22.2188C31.0312 21.4421 30.4016 20.8125 29.625 20.8125H18.375C17.5984 20.8125 16.9688 21.4421 16.9688 22.2188V22.6875H15.5625C14.7859 22.6875 14.1562 23.3171 14.1562 24.0938C14.1562 24.8704 14.7859 25.5 15.5625 25.5H16.9688V26.9062C16.9688 27.3992 17.0545 27.8723 17.2106 28.3125H3.375C1.56572 28.3125 0.09375 29.7845 0.09375 31.5938V44.7188C0.09375 46.528 1.56572 48 3.375 48H44.625C46.4343 48 47.9062 46.528 47.9062 44.7188V31.5938C47.9062 29.7845 46.4343 28.3125 44.625 28.3125ZM28.2188 45.1875H19.7812V42.375H28.2188V45.1875ZM29.625 39.5625H18.375C17.5984 39.5625 16.9688 40.1921 16.9688 40.9688V45.1875H14.1562V31.125H33.8438V45.1875H31.0312V40.9688C31.0312 40.1921 30.4016 39.5625 29.625 39.5625ZM19.7812 26.9062V23.625H28.2188V26.9062C28.2188 27.6817 27.5879 28.3125 26.8125 28.3125H21.1875C20.4121 28.3125 19.7812 27.6817 19.7812 26.9062ZM2.90625 44.7188V31.5938C2.90625 31.3353 3.11653 31.125 3.375 31.125H11.3438V45.1875H3.375C3.11653 45.1875 2.90625 44.9772 2.90625 44.7188ZM45.0938 44.7188C45.0938 44.9772 44.8835 45.1875 44.625 45.1875H36.6562V31.125H44.625C44.8835 31.125 45.0938 31.3353 45.0938 31.5938V44.7188Z" fill="#ea7a12"/>
<path d="M18.375 36.75C19.1517 36.75 19.7812 36.1204 19.7812 35.3438C19.7812 34.5671 19.1517 33.9375 18.375 33.9375C17.5983 33.9375 16.9688 34.5671 16.9688 35.3438C16.9688 36.1204 17.5983 36.75 18.375 36.75Z" fill="#ea7a12"/>
<path d="M7.125 36.75C7.90165 36.75 8.53125 36.1204 8.53125 35.3438C8.53125 34.5671 7.90165 33.9375 7.125 33.9375C6.34835 33.9375 5.71875 34.5671 5.71875 35.3438C5.71875 36.1204 6.34835 36.75 7.125 36.75Z" fill="#ea7a12"/>
<path d="M40.875 36.75C41.6517 36.75 42.2812 36.1204 42.2812 35.3438C42.2812 34.5671 41.6517 33.9375 40.875 33.9375C40.0983 33.9375 39.4688 34.5671 39.4688 35.3438C39.4688 36.1204 40.0983 36.75 40.875 36.75Z" fill="#ea7a12"/>
<path d="M24 36.75C24.7767 36.75 25.4062 36.1204 25.4062 35.3438C25.4062 34.5671 24.7767 33.9375 24 33.9375C23.2233 33.9375 22.5938 34.5671 22.5938 35.3438C22.5938 36.1204 23.2233 36.75 24 36.75Z" fill="#ea7a12"/>
<path d="M29.625 36.75C30.4017 36.75 31.0312 36.1204 31.0312 35.3438C31.0312 34.5671 30.4017 33.9375 29.625 33.9375C28.8483 33.9375 28.2188 34.5671 28.2188 35.3438C28.2188 36.1204 28.8483 36.75 29.625 36.75Z" fill="#ea7a12"/>
</g>
<defs>
<clipPath id="clip0_0_992">
<rect width="48" height="48" fill="white"/>
</clipPath>
</defs>
</svg>
