<!DOCTYPE svg PUBLIC "-//W3C//DTD SVG 1.1//EN" "http://www.w3.org/Graphics/SVG/1.1/DTD/svg11.dtd">
<!-- Uploaded to: SVG Repo, www.svgrepo.com, Transformed by: SVG Repo Mixer Tools -->
<svg fill="#1A1A1A" height="64px" width="64px" version="1.1" id="Layer_1" xmlns="http://www.w3.org/2000/svg" xmlns:xlink="http://www.w3.org/1999/xlink" viewBox="0 0 512 512" xml:space="preserve">
<g id="SVGRepo_bgCarrier" stroke-width="0"/>
<g id="SVGRepo_tracerCarrier" stroke-linecap="round" stroke-linejoin="round"/>
<g id="SVGRepo_iconCarrier"> <g> <g> <path d="M112.269,385.398l4.261,72.436C118.318,488.208,143.552,512,173.977,512h154.221c30.427,0,55.66-23.793,57.446-54.166 l4.261-72.436H112.269z"/> </g> </g> <g> <g> <path d="M384.88,244.173c14.093-22.901,20.943-49.311,20.943-80.741V48.339H388.56c-28.644,0-54.897,9.291-75.393,26.431 c-5.549-14.573-13.374-27.535-23.37-38.531C268.553,12.871,238.457,0,205.051,0h-17.264v77.098 c-18.181-11.246-39.648-17.25-62.662-17.25h-17.264v109.338c0,31.429,6.851,57.84,20.943,80.741 c7.259,11.795,16.403,22.433,27.369,31.888h-49.997l4.062,69.056h281.7l4.062-69.056h-45.574 C364.594,270.99,376.109,258.423,384.88,244.173z M233.825,279.563c-29.925-18.621-29.924-38.7-29.924-52.831v-62.586 c6.14,2.332,11.538,5.992,15.999,10.898c9.111,10.021,13.925,24.71,13.925,42.481V279.563z M261.333,112.975 c-8.867,9.754-15.664,21.36-20.289,34.451c-5.549-5.226-11.825-9.572-18.729-12.916V36.12 c30.207,5.792,51.997,27.102,61.267,59.066C275.328,99.87,267.83,105.827,261.333,112.975z M344.105,241.033 c3.213-11.425,4.812-23.797,4.812-37.319V92.058c6.833-3.56,14.314-6.142,22.379-7.643v79.017 c0,24.853-5.176,45.344-15.822,62.645C352.231,231.348,348.427,236.329,344.105,241.033z"/> </g> </g> </g>
</svg>