<!DOCTYPE svg PUBLIC "-//W3C//DTD SVG 1.1//EN" "http://www.w3.org/Graphics/SVG/1.1/DTD/svg11.dtd">
<!-- Uploaded to: SVG Repo, www.svgrepo.com, Transformed by: SVG Repo Mixer Tools -->
<svg fill="#acb57d" height="64px" width="64px" version="1.1" id="Capa_1" xmlns="http://www.w3.org/2000/svg" xmlns:xlink="http://www.w3.org/1999/xlink" viewBox="0 0 427.581 427.581" xml:space="preserve">
<g id="SVGRepo_bgCarrier" stroke-width="0"/>
<g id="SVGRepo_tracerCarrier" stroke-linecap="round" stroke-linejoin="round"/>
<g id="SVGRepo_iconCarrier"> <g> <path d="M423.241,43.896c-2.181-2.182-5.191-3.383-8.478-3.383c-4.016,0-8.091,1.772-11.182,4.864 c-4.423,4.422-9.669,13.407-11.943,20.454l-7.451,23.084c-1.516,4.693-7.03,9.902-11.802,11.147l-25.864,6.745 c-7.247,1.889-17.074,7.519-22.371,12.816l-16.083,16.083c-1.313,1.313-3.071,2.036-4.95,2.036c-1.879,0-3.638-0.724-4.95-2.035 l-6.274-6.274c-2.729-2.729-2.729-7.171,0-9.9l16.084-16.083c5.297-5.297,10.927-15.123,12.816-22.371l6.745-25.864 c1.245-4.771,6.453-10.286,11.146-11.802l23.085-7.451c7.047-2.274,16.032-7.521,20.454-11.943 c2.663-2.662,4.356-6.055,4.768-9.551c0.457-3.879-0.741-7.563-3.286-10.108c-2.768-2.77-7.502-4.358-12.987-4.358 c-3.103,0-6.24,0.511-9.073,1.476l-44.669,15.217c-6.986,2.38-16.548,8.333-21.767,13.553l-23.018,23.017 c-5.58,5.579-9.95,16.13-9.95,24.021v2.658c0,5.289-3.281,13.21-7.02,16.948l-1.544,1.544c-2.345,2.344-4.469,4.483-6.001,6.04 c-0.779,0.792-1.408,1.436-1.84,1.883c-1.343,1.395-1.887,2.678-2.008,3.786c0.081-1.057,0.465-2.049,1.093-2.768 c-0.235,0.27-1.471,1.555-3.374,3.458c-4.305,4.307-2.368,12.257,4.709,19.333l51.177,51.177c4.364,4.365,9.429,6.971,13.546,6.971 c2.913,0,4.755-1.23,5.787-2.263c1.903-1.902,3.189-3.138,3.458-3.373c-0.111,0.098-0.477,0.396-1.05,0.661 c1.398-0.824,3.679-3.104,9.989-9.417l1.543-1.543c3.74-3.739,11.661-7.02,16.95-7.02h2.658c7.891,0,18.441-4.37,24.02-9.95 l23.018-23.017c5.219-5.218,11.172-14.779,13.553-21.768l15.216-44.668C428.486,59.023,428.28,48.936,423.241,43.896z M244.361,112.831c-0.116-0.221-0.219-0.444-0.298-0.673C244.15,112.402,244.252,112.627,244.361,112.831z M244.969,113.734 c-0.092-0.108-0.176-0.219-0.256-0.332C244.804,113.53,244.888,113.637,244.969,113.734z M244.692,113.372 c-0.121-0.173-0.229-0.349-0.324-0.529C244.473,113.04,244.584,113.216,244.692,113.372z"/> <path d="M207.034,116.346c-3.013-3.014-7.03-4.673-11.313-4.673c-4.283,0-8.301,1.659-11.314,4.673l-15.014,15.014 c-6.239,6.238-6.239,16.389,0,22.627l0.416,0.416l-77.219,55.439c-4.431,3.181-10.518,9.051-13.859,13.362L3.117,320.793 c-4.604,5.942-4.048,14.761,1.269,20.076l13.978,13.978c2.512,2.512,5.783,3.896,9.214,3.896c3.946,0,7.657-1.84,10.181-5.048 l73.656-93.599c2.717-3.452,8.178-8.298,11.925-10.583l87.943-53.64l20.445,20.445l-53.64,87.943 c-2.285,3.746-7.131,9.207-10.582,11.923l-93.6,73.657c-2.977,2.343-4.809,5.781-5.025,9.434c-0.217,3.652,1.194,7.283,3.873,9.961 l13.979,13.978c2.771,2.772,6.712,4.361,10.812,4.362h0.001c3.399,0,6.689-1.099,9.264-3.094l97.589-75.615 c4.312-3.341,10.182-9.429,13.362-13.859l55.439-77.219l0.416,0.417c3.014,3.014,7.031,4.674,11.313,4.674 c4.283,0,8.301-1.66,11.314-4.674l15.014-15.013c3.014-3.014,4.674-7.031,4.674-11.313c0-4.283-1.66-8.301-4.674-11.313 L207.034,116.346z"/> </g> </g>
</svg>